<?xml version="1.0" encoding="utf-8"?>
<!-- Generator: Adobe Illustrator 27.5.0, SVG Export Plug-In . SVG Version: 6.00 Build 0)  -->
<svg version="1.1" id="Слой_1" xmlns="http://www.w3.org/2000/svg" xmlns:xlink="http://www.w3.org/1999/xlink" x="0px" y="0px"
	 viewBox="0 0 1000 1000" style="enable-background:new 0 0 1000 1000;" xml:space="preserve">
<style type="text/css">
	.st0{opacity:0.9;fill:#ffffff;stroke:#02AABD;stroke-width:10;stroke-miterlimit:10;}
	.st1{fill:#101314;}
	.st2{fill:#02AABD;}
</style>
<path class="st0" d="M990,1000.5H10c-5.52,0-10-4.48-10-10v-980c0-5.52,4.48-10,10-10h980c5.52,0,10,4.48,10,10v980
	C1000,996.02,995.52,1000.5,990,1000.5z"/>
<g>
	<g>
		<path class="st1" d="M632.27,122.01c-49.08,1.23-85.81,14.17-112.13,33.25c-4.5,3.26-4.53,9.92-0.08,13.25
			c40.16,30,63.04,76.16,63.04,139.01c0,32.59-5.73,61.43-16.64,86.31c-1.72,3.93-0.06,8.52,3.74,10.5
			c22.55,11.7,48.96,23.11,79.43,34.91c4.46,1.72,8.85,3.45,13.18,5.2c3.96,1.6,8.49-0.13,10.39-3.95
			c19.37-38.9,29.41-85.06,29.41-138.46c0-72.86-23.62-133.9-64.19-177.45C636.84,122.88,634.59,121.95,632.27,122.01z"/>
		<g>
			<path class="st2" d="M632.29,122.51c-35.13,0.77-71.03,7.98-101.15,26.75c0,0-5.51,3.61-5.51,3.61
				c-1.26,0.89-3.45,2.48-4.68,3.36c-3.82,2.74-3.7,8.71,0.23,11.26c0.75,0.56,3.18,2.45,3.99,3.06c3.04,2.22,7.39,6.08,10.29,8.61
				c1.86,1.85,5.46,5.29,7.16,7.09c1.14,1.29,3.35,3.73,4.49,5.01c3.44,3.92,7.35,9.02,10.23,13.35c1.21,1.74,2.65,3.86,3.66,5.65
				c0,0,3.45,5.79,3.45,5.79c1.81,3.56,4.48,8.45,5.96,12.09c20.74,46.47,20.42,110.55,3.04,158.09c-0.99,2.64-2.01,5.28-3.11,7.87
				c0,0-0.32,0.78-0.32,0.78c-0.33,0.72-0.57,1.57-0.51,2.37c0.09,1.78,1.29,3.28,2.93,3.96c0,0,0.74,0.37,0.74,0.37
				c28.44,14.43,58.41,26.07,88.23,37.38c0,0,3.11,1.19,3.11,1.19c0.47,0.18,0.94,0.24,1.42,0.22c1.3-0.07,2.51-0.85,3.05-2.03
				c0,0,0.09-0.18,0.09-0.18l0.34-0.74c14.59-30.43,22.64-63.65,26.18-97.13c7.14-68.97-2.07-143.66-45.07-200.24
				c-2.72-3.47-5.37-7-8.34-10.27c0,0-4.33-4.98-4.33-4.98C636.44,123.33,634.37,122.47,632.29,122.51L632.29,122.51z
				 M632.26,121.51c2.35-0.09,4.73,0.83,6.41,2.51l4.48,4.94c45.33,50.22,66.31,118.45,64.26,185.53
				c-0.81,38.16-7.46,76.52-22.41,111.78c-2.14,5.14-4.64,10.34-7.11,15.35c-0.65,1.35-1.44,2.78-2.5,3.88
				c-3.52,3.91-9.48,5.23-14.31,3.19c0,0-3.06-1.24-3.06-1.24s-12.27-4.96-12.27-4.96c-24.76-9.88-49.34-20.41-73.09-32.61
				c-0.6-0.33-3.18-1.65-3.71-1.93c-5.94-2.74-8.62-10.11-5.72-16c4.73-10.67,8.35-21.79,11.02-33.17
				c6.32-27.64,7.29-56.53,3.63-84.62c-0.34-2.09-1.29-7.65-1.63-9.68c-0.46-2.26-1.62-7.28-2.13-9.58
				c-3.21-12.63-7.84-25.01-13.85-36.59c-0.91-1.55-3.88-6.92-4.88-8.5c-0.87-1.33-2.71-4.13-3.59-5.47
				c-1.44-2.33-4.2-5.79-5.76-7.94c-1.27-1.76-2.83-3.41-4.17-5.05c-2.45-3.07-6.21-6.78-8.9-9.62c-3.66-3.47-8.32-7.67-12.34-10.82
				c0,0-1.27-1.04-1.27-1.04c-4.95-3.49-5.39-11.25-0.64-15.09C551.6,131.35,592.55,122.8,632.26,121.51L632.26,121.51z"/>
		</g>
	</g>
	<g>
		<path class="st1" d="M573.05,530.87c6.38,2.41,7.19,11.12,1.37,14.67c-60.81,37.11-139.75,55.96-226.23,55.96
			c-31.56,0-60.97-1.07-86.34-6.06c-5.09-1-9.82,2.85-9.82,8.04v352.48c0,4.53-3.67,8.2-8.2,8.2H140.72c-4.53,0-8.2-3.67-8.2-8.2
			V56.24c0-4.03,2.92-7.46,6.89-8.1c56.78-9.12,130.14-16.73,222.52-16.73c44.01,0,83.64,3.82,118.88,11.16
			c7.64,1.59,8.93,11.92,1.93,15.39c-34.03,16.86-62.65,39.29-84.86,66.07c-1.7,2.05-4.26,3.17-6.92,3
			c-8.54-0.55-17.31-0.83-26.29-0.83c-47.18,0-84.26,3.37-106.17,8.07c-3.78,0.81-6.47,4.15-6.47,8.02v347
			c0,3.81,2.61,7.14,6.32,7.99c25.04,5.73,55.9,8.06,92.59,8.06c45.39,0,85.22-6.94,118.48-20.44c2.42-0.98,5.13-0.79,7.37,0.55
			C505.04,502.39,537.3,517.39,573.05,530.87z"/>
		<path class="st2" d="M573.23,530.41c6.36,2.27,7.7,11.54,1.78,15.32c-6.69,4.11-13.91,8.06-20.9,11.67
			c-44.42,22.75-93.5,35.26-142.89,41.11c-31.7,3.59-63.65,4.24-95.51,3.18c-15.93-0.56-31.88-1.65-47.66-4.23
			c-3.66-0.32-7.66-2.28-11.13-0.44c-2.38,1.22-3.95,3.77-3.93,6.44c0,0,0.01,2.98,0.01,2.98c0.47,93.27,1.03,254.08,1.34,346.41
			c0,0,0.01,2.99,0.01,2.99c0.01,1.2-0.19,2.53-0.63,3.72c-1.45,4.23-5.84,7.19-10.31,6.97c0,0-1.49,0.01-1.49,0.01
			s-5.97,0.02-5.97,0.02c-7.96,0.12-27.72,0.02-35.84,0.12c-8.3,0.27-52.3-0.07-59.83,0.1c-5.69-0.14-10.56-5.24-10.39-10.96
			c0,0,0-0.75,0-0.75s0-1.49,0-1.49c-0.12-71.91-0.47-233.76-0.6-307.59c-0.24-133.74-0.9-455.38-1.21-585.32
			c0,0-0.01-2.99-0.01-2.99c0,0,0-1.52,0-1.52c0.01-0.77,0.08-1.53,0.22-2.29c0.92-5.29,5.54-9.61,10.85-10.24
			c0,0,1.48-0.24,1.48-0.24s5.92-0.94,5.92-0.94c67.11-10.5,135.05-15.42,202.95-16c40.04-0.57,80.4,1.56,119.91,8.61
			c3.81,0.75,10.04,1.75,13.81,2.77c5.54,1.58,9.48,7.24,9.34,12.92c-0.01,4.02-2.05,8.12-5.35,10.55
			c-1.03,0.83-3.45,1.96-4.67,2.61c-3.5,1.75-6.93,3.63-10.35,5.51c-26.36,14.79-50.32,34.02-69.76,57.19
			c-2.55,3.38-6.65,5.58-10.93,5.53c-0.37-0.01-0.89-0.03-1.06-0.04c0,0-5.88-0.34-5.88-0.34c-19.69-0.91-39.49-0.48-59.23,0.29
			c-21.67,1-43.28,2.47-64.52,6.63c0,0-0.71,0.14-0.71,0.14c-0.2,0.04-0.57,0.11-0.62,0.13c-1.44,0.32-2.59,1.63-2.66,3.12
			c-0.02,0.39-0.02,2.12-0.02,2.69c-0.34,82.06-1.52,242.31-2.24,325.51c0,0-0.1,11.95-0.1,11.95s-0.05,5.97-0.05,5.97
			c-0.07,1.55,0.06,3.12,0.96,4.43c1.97,3.04,5.96,2.84,9.15,3.75c11.62,2.43,23.38,4.04,35.21,5.15
			c31.57,2.62,63.55,3.51,95.12,0.23c25.14-2.64,50.07-8.08,73.62-17.35c2.47-1.12,5.4-1.27,7.88-0.09c1.02,0.5,1.79,1.02,2.67,1.52
			C508.87,503.64,540.71,518,573.23,530.41L573.23,530.41z M572.88,531.34c-32.62-12.23-64.64-26.45-94.72-44.15
			c-2.99-2.02-5.76-2.82-9.1-1.24c-31.06,12.62-64.49,18.48-97.86,20.28c-35.88,1.48-72.16,0.87-107.59-5.6
			c-1.99-0.38-3.9-0.79-5.95-1.23c-3.74-0.88-6.81-3.99-7.65-7.73c-0.3-1.11-0.3-2.37-0.3-3.49c0,0-0.05-5.97-0.05-5.97
			c-0.65-89.79-2.11-249.95-2.35-338.95c-0.44-6.86,4.46-13.01,11.53-13.93c21.73-4.42,43.98-6.11,66.01-7.27
			c22.02-0.92,44.16-1.47,66.22-0.15c0,0,0.43,0.02,0.43,0.02c0.28-0.01,0.57-0.04,0.84-0.12c0.55-0.15,1.06-0.47,1.45-0.88
			c0,0,0.75-0.88,0.75-0.88c4.53-5.4,9.39-10.8,14.38-15.78c20.04-20.21,43.56-36.76,68.88-49.63c0,0,2.66-1.37,2.66-1.37
			c0.16-0.13,0.36-0.21,0.51-0.32c0.69-0.54,1.11-1.31,1.15-2.3c-0.04-1.15-0.55-2.21-1.52-2.67c-0.45-0.26-0.9-0.31-1.47-0.44
			c0,0-5.79-1.17-5.79-1.17c-40.77-7.9-82.29-10.37-123.8-9.89c-69.43,0.43-138.91,5.07-207.53,15.8c0,0-1.47,0.23-1.47,0.23
			c-0.45,0.11-0.57,0.06-0.89,0.18c-1.3,0.37-2.35,1.51-2.6,2.84c-0.16,1.04-0.05,3.98-0.08,5.13c-0.57,259.16-1.29,613.38-1.77,872
			c0,0-0.02,23.7-0.02,23.7c0.09,1.35,0.69,2.64,1.66,3.59c0.97,0.96,2.28,1.52,3.64,1.57c0,0,11.84,0.04,11.84,0.04
			c16.23,0.24,56.07-0.05,71.67,0.17c4.09,0,13.97,0.05,17.92,0.06c0,0,1.49,0,1.49,0c0.26,0,0.5,0,0.65-0.01
			c2.33-0.03,4.52-1.64,5.29-3.83c0.53-1.16,0.34-3.82,0.38-5.12c0.15-93.24,1.04-255.01,1.35-349.4
			c-0.05-5.86,5.81-10.24,11.4-8.79c33.21,6.32,67.3,6.41,101.01,6.06c45.68-1.13,91.46-7.7,135.08-21.48
			c20.76-6.8,41.18-14.98,60.38-25.45c5.28-2.73,10.4-5.85,15.51-8.87C579.56,541.56,578.68,533.44,572.88,531.34L572.88,531.34z"/>
	</g>
	<g>
		<path class="st1" d="M676.51,450.09c-3.83-1.62-8.25-0.15-10.32,3.45c-9.78,16.93-21.47,32.37-35.01,46.3
			c-12.72,13.56-27.06,25.77-42.81,36.64c0.27,0.1,0.54,0.19,0.81,0.29c125.01,48.08,174.46,97.53,174.46,184.08
			c0,93.41-71.43,157.98-193.7,157.98c-77.98,0-152.27-24.59-205.42-55.16c-4.57-2.63-10.39-0.28-11.91,4.76l-25.41,84.3
			c-1.07,3.54,0.35,7.38,3.49,9.32c50.89,31.35,144.78,55.69,231,55.69c218.42,0,324.2-123.64,324.2-266.5
			C885.91,583.25,815.36,508.8,676.51,450.09z M465.55,260.65c0-30.88,11.48-64.7,37.96-91.22c3.79-3.79,2.88-10.21-1.79-12.85
			c-28.08-15.85-62.56-25.44-102.11-28.91c-2.75-0.24-5.46,0.93-7.14,3.12c-30.82,40.08-47.81,89.2-47.81,143.59
			c0,91.29,45.71,157.03,124.9,206.64c2.34,1.47,5.27,1.62,7.78,0.48c36.28-16.39,64.11-41.08,82.1-73.51
			c2.2-3.97,0.82-8.95-3.12-11.19C494,361.46,465.55,322.16,465.55,260.65z M644.14,23c-42.22,0-81.11,5.9-115.91,16.79
			c-7.57,2.37-7.67,13.03-0.16,15.6c37.58,12.85,68.74,30.67,93.5,52.95c4.11,3.56,8.08,7.26,11.92,11.12
			c1.56,1.57,3.67,2.46,5.88,2.46c0.21,0,0.43,0,0.64,0c76.68,0,134.95,23,167.45,39.54c4.45,2.26,9.87,0.03,11.47-4.7l27.68-81.9
			c1.28-3.79-0.35-7.98-3.89-9.86C800.99,42.93,734.4,23,644.14,23z"/>
		<g>
			<path class="st2" d="M676.32,450.55c-3.47-1.51-7.83-0.12-9.69,3.21c-8.61,14.85-18.83,28.78-30.45,41.41
				c-14.24,15.61-30.1,29.74-47.52,41.71c0,0-0.12-0.86-0.12-0.86c23.76,9.08,47.36,19.01,69.9,30.87
				c40.36,21.01,80.13,50.51,96.82,94.44c17.49,47.59,13.59,106.09-16.01,148.13c-17.77,25.61-44.21,44.29-73.05,55.53
				c-28.71,11.39-59.85,16.11-90.62,16.69c-74.3,1.09-148.58-18.82-213.28-55.13c-2.36-1.14-5.51,0.38-6.19,2.92
				c0,0-0.14,0.46-0.14,0.46s-0.27,0.91-0.27,0.91c-5,16.87-19.77,66.23-24.69,82.79c-0.67,1.89,0.08,4.09,1.8,5.11
				c0,0,1.63,0.93,1.63,0.93s6.5,3.73,6.5,3.73c64.13,34.34,154.43,50.63,226.95,49.45c107.65-1.22,220.79-35.84,279.02-132.87
				c25.38-41.84,36.32-91.38,35.12-140.1c-0.69-26.29-4.48-52.89-13.18-77.77C839.36,534.84,756.79,484.99,676.32,450.55
				L676.32,450.55z M676.71,449.63c56.04,23.77,111.88,53.11,153.34,98.65c20.74,22.79,36.93,49.94,46.54,79.26
				c7.37,21.9,11.24,45.18,12.56,68.23c1.13,19.23,0.55,38.84-2.22,57.92c-17.59,121.34-110.71,196.92-226.95,219.66
				c-40.29,8.02-81.84,10.51-122.81,8.34c-61.42-3.77-122.79-16.13-179.27-41.02c-6.02-2.66-13.28-6.32-19.11-9.4
				c-2.33-1.3-7.78-4.56-10.09-5.86c-4.81-2.88-6.97-9.23-4.99-14.47c0,0,0.56-1.83,0.56-1.83c4.78-15.49,19.87-65.4,24.75-81.27
				c1.9-7.45,10.76-11.21,17.37-7.24c1.35,0.73,4.36,2.45,5.78,3.22c61.9,33.93,132.64,52.57,203.32,51.97
				c59.21-0.42,124.12-18.73,159.9-69.06c29.21-40.56,33.33-97.8,16.95-144.28c-22-58.58-81.61-90.19-135.85-114
				c-9.61-4.18-19.36-8.09-29.13-11.84c0,0,0.76-0.52,0.76-0.52c17.38-11.9,33.29-25.89,47.45-41.49
				c11.55-12.61,21.69-26.51,30.24-41.33C667.87,449.56,672.8,447.9,676.71,449.63L676.71,449.63z"/>
			<path class="st2" d="M465.05,260.65c0.17-30.9,11.56-61.62,31.74-85.05c1.55-1.97,3.33-3.72,4.96-5.53c0,0,1.25-1.36,1.25-1.36
				c0.18-0.21,0.37-0.41,0.53-0.63l0.45-0.69c2.01-3.33,0.72-8.08-2.72-9.9c0,0-1.62-0.86-1.62-0.86
				c-30.32-16.1-64.49-23.61-98.5-26.47c-1.79-0.21-3.94-0.34-5.49,0.9c-1.11,0.61-3.13,3.97-4.07,5.13
				c-17.19,23.52-29.67,50.61-36.62,78.89c-6.9,28.29-8.49,57.9-5.18,86.8c5.81,58.37,38.36,111.08,83.89,147.2
				c12.13,10.05,25.13,19.1,38.5,27.45c0.91,0.64,2.04,0.62,3.05,0.19c0,0,0.81-0.38,0.81-0.38c32.13-14.53,60.49-38.03,78.47-68.56
				c0.16-0.32,1.01-1.62,1.16-1.91c1.26-2.1,0.35-4.73-1.82-5.81c-2.92-1.79-5.85-3.57-8.71-5.43
				C494.6,362.6,464.06,322.39,465.05,260.65L465.05,260.65z M466.05,260.65c0.06,61.41,31.71,98.28,83.05,127.49
				c3.19,1.88,6.53,3.59,9.74,5.43c4.84,2.87,7.13,9.23,5.22,14.56c-0.23,0.83-0.67,1.59-1.06,2.35
				c-12.78,24.07-31.89,44.58-54.53,59.69c-8.92,6.01-18.38,11.15-28.1,15.66c-4.22,2.27-9.67,2.17-13.69-0.5
				c0,0-3.14-2.03-3.14-2.03c-64.66-40.77-113.87-102.59-120.95-180.59c-3.04-29.79-1.01-60.09,6.45-89.1
				c7.49-28.89,20.61-56.48,38.53-80.36c0.76-0.98,2.62-3.56,3.53-4.59c2.16-2.36,5.44-3.63,8.62-3.34c0,0,1.87,0.2,1.87,0.2
				c34.41,3.56,68.85,12.07,99.08,29.3c0,0,1.62,0.91,1.62,0.91c4.29,2.43,5.85,8.41,3.2,12.57c-0.56,1-1.76,2.09-2.54,2.94
				c-1.59,1.71-3.6,3.59-5.03,5.34C477.4,199.41,465.96,229.99,466.05,260.65L466.05,260.65z"/>
			<path class="st2" d="M644.14,23.5c-39.05-0.29-78.19,5.28-115.25,17.6c-6.08,1.73-6.42,10.59-0.28,12.56c0,0,1.4,0.47,1.4,0.47
				s2.83,0.95,2.83,0.95c34.09,11.39,66.28,28.95,93.06,53.1c3.02,2.65,5.97,5.38,8.84,8.18c0.96,1,2.07,2.04,3.47,2.29
				c0.51,0.14,1.7,0.12,2.25,0.12c54.97-0.32,110.11,11.22,160.1,34.29c2.7,1.21,5.49,2.58,8.16,3.87c0,0,0.68,0.33,0.68,0.33
				s0.17,0.08,0.17,0.08s0.08,0.03,0.08,0.03c1.02,0.48,2.24,0.39,3.23-0.18c0.75-0.44,1.27-1.12,1.54-1.92c0,0,1.82-5.58,1.82-5.58
				s3.68-11.3,3.68-11.3c6.74-20.56,13.7-41.48,20.71-61.98c0,0,0.96-2.81,0.96-2.81c0.48-1.09,0.42-2.45-0.38-3.38
				c-0.23-0.28-0.51-0.51-0.83-0.7c0,0-2.55-1.32-2.55-1.32c-2.58-1.39-7.79-3.94-10.45-5.16C770.28,36.53,706.95,24.14,644.14,23.5
				L644.14,23.5z M644.14,22.5c47.63-0.08,95.79,3.09,142.01,15.42c17.26,4.74,34.72,10.87,50.89,18.55c0,0,5.42,2.7,5.42,2.7
				c2.08,1.01,5.04,2.43,6.51,4.39c3.16,3.61,4.06,8.88,2.41,13.36c-0.61,1.67-2.21,6.68-2.84,8.45
				c-8.14,24.27-16.67,48.94-25.17,73.08c-2.3,6.8-10.64,10.51-17.19,7.47c-4.9-2.41-9.79-4.98-14.76-7.24
				c-47.14-21.87-99-33.09-150.97-33.62c-2.55,0.08-5.26-0.46-7.37-1.96c-1.01-0.56-1.83-1.61-2.66-2.37
				c-2.75-2.77-5.57-5.47-8.47-8.1c-26.97-25.17-59.94-43.08-94.54-55.56c-8.84-3.15-8.66-16.23,0.62-18.72
				C565.7,27.41,605.02,22.78,644.14,22.5L644.14,22.5z"/>
		</g>
	</g>
</g>
</svg>
